# xmcd
#
# Track frame offsets:
#	150
#	19287
#	34700
#	50779
#	67675
#	83229
#	101085
#	120863
#	139074
#	158178
#	171888
#	190463
#	208842
#
# Disc length: 2990 seconds
#
# Revision: 1
# Processed by: cddbd v1.5.2PL0 Copyright (c) Steve Scherf et al.
# Submitted via: audiograbber 1.83.01
#
DISCID=b20bac0d
DTITLE=Alan Jackson - Like Red On A Rose
DYEAR=2006
DGENRE=Country
TTITLE0=Anywhere On Earth You Are
TTITLE1=Good Imitation Of The Blues
TTITLE2=Like Red On A Rose
TTITLE3=Nobody Said That It Would Be Easy
TTITLE4=Don't Change On Me
TTITLE5=The Firefly's Song
TTITLE6=Wait A Minute
TTITLE7=Had It Not Been You
TTITLE8=A Woman's Love
TTITLE9=Don't Ask Why
TTITLE10=As Lovely As You
TTITLE11=Where Do I Go From Here (A Trucker's Song)
TTITLE12=Bluebird
EXTD=
EXTT0=
EXTT1=
EXTT2=
EXTT3=
EXTT4=
EXTT5=
EXTT6=
EXTT7=
EXTT8=
EXTT9=
EXTT10=
EXTT11=
EXTT12=
PLAYORDER=
